# xmcd
#
# Track frame offsets: 
#        150
#        674
#        17633
#        33219
#        49772
#        66607
#        83772
#        102832
#        115585
#        138412
#        153193
#        169459
#        188105
#        209599
#        228335
#        241008
#        252880
#        270914
#        289589
#        301208
#        313757
#
# Disc length: 4426 seconds
#
# Revision: 0
# Processed by: cddbd v1.5.2PL0 Copyright (c) Steve Scherf et al.
# Submitted via: ExactAudioCopy v0.99pb4
#
DISCID=12114815
DTITLE=Various Artist - prevue promo 1049A-1
DYEAR=2000
DGENRE=pop
TTITLE0=blank - data
TTITLE1=Madonna  - Music
TTITLE2=The Corn - Breathless
TTITLE3=Stroke 9 - Washin' and Wonderin'
TTITLE4=Elton John - Friends Never Say Goodbye
TTITLE5=Barenaked Ladies - Plnch Me
TTITLE6=dogstar -  Cornerstore
TTITLE7=SR 71 - Right Now
TTITLE8=Sting - After The Rain Has Fallen
TTITLE9=Dar Williams - What Do You Love More Than Love
TTITLE10=Five For Fighting - Easv Tonight
TTITLE11=Joseph Arthur - In The Sun 
TTITLE12=Widespread Panic WIth The Dirty Dozen Brass Band - Arleen
TTITLE13=Poe - walk The Walk
TTITLE14=Flak - Tune In
TTITLE15=Llnkin Park - One Step Closer
TTITLE16=Full Devil Jacket - Where Did You Go?
TTITLE17=Queensryche - Beside You
TTITLE18=Paul Rodgers - Deep Blue
TTITLE19=Dumdums - Everything
TTITLE20=Crushdown - This
EXTD=
EXTT0=
EXTT1=
EXTT2=
EXTT3=
EXTT4=
EXTT5=
EXTT6=
EXTT7=
EXTT8=
EXTT9=
EXTT10=
EXTT11=
EXTT12=
EXTT13=
EXTT14=
EXTT15=
EXTT16=
EXTT17=
EXTT18=
EXTT19=
EXTT20=
PLAYORDER=
